<?xml version="1.0" encoding="UTF-8"?>
<!--Generator: Apple Native CoreSVG 123-->
<!DOCTYPE svg
PUBLIC "-//W3C//DTD SVG 1.1//EN"
       "http://www.w3.org/Graphics/SVG/1.1/DTD/svg11.dtd">
<svg version="1.1" xmlns="http://www.w3.org/2000/svg" xmlns:xlink="http://www.w3.org/1999/xlink" width="3300" height="2200">
 <!--glyph: "uni10007D.medium", point size: 100.000000, font version: "Version 15.0d7e11", template writer version: "5"-->
 <g id="Notes">
  <rect height="2200" id="artboard" style="fill:white;opacity:1" width="3300" x="0" y="0"/>
  <line id="" style="fill:none;stroke:black;opacity:1;stroke-width:0.5;" x1="263" x2="3036" y1="292" y2="292"/>
  <text style="stroke:none;fill:black;font-family:-apple-system,&quot;SF Pro Display&quot;,&quot;SF Pro Text&quot;,Helvetica,sans-serif;font-weight:bold;" transform="matrix(1 0 0 1 263 322)">Weight/Scale Variations</text>
  <text style="stroke:none;fill:black;font-family:-apple-system,&quot;SF Pro Display&quot;,&quot;SF Pro Text&quot;,Helvetica,sans-serif;text-anchor:middle;" transform="matrix(1 0 0 1 559.711 322)">Ultralight</text>
  <text style="stroke:none;fill:black;font-family:-apple-system,&quot;SF Pro Display&quot;,&quot;SF Pro Text&quot;,Helvetica,sans-serif;text-anchor:middle;" transform="matrix(1 0 0 1 856.422 322)">Thin</text>
  <text style="stroke:none;fill:black;font-family:-apple-system,&quot;SF Pro Display&quot;,&quot;SF Pro Text&quot;,Helvetica,sans-serif;text-anchor:middle;" transform="matrix(1 0 0 1 1153.13 322)">Light</text>
  <text style="stroke:none;fill:black;font-family:-apple-system,&quot;SF Pro Display&quot;,&quot;SF Pro Text&quot;,Helvetica,sans-serif;text-anchor:middle;" transform="matrix(1 0 0 1 1449.84 322)">Regular</text>
  <text style="stroke:none;fill:black;font-family:-apple-system,&quot;SF Pro Display&quot;,&quot;SF Pro Text&quot;,Helvetica,sans-serif;text-anchor:middle;" transform="matrix(1 0 0 1 1746.56 322)">Medium</text>
  <text style="stroke:none;fill:black;font-family:-apple-system,&quot;SF Pro Display&quot;,&quot;SF Pro Text&quot;,Helvetica,sans-serif;text-anchor:middle;" transform="matrix(1 0 0 1 2043.27 322)">Semibold</text>
  <text style="stroke:none;fill:black;font-family:-apple-system,&quot;SF Pro Display&quot;,&quot;SF Pro Text&quot;,Helvetica,sans-serif;text-anchor:middle;" transform="matrix(1 0 0 1 2339.98 322)">Bold</text>
  <text style="stroke:none;fill:black;font-family:-apple-system,&quot;SF Pro Display&quot;,&quot;SF Pro Text&quot;,Helvetica,sans-serif;text-anchor:middle;" transform="matrix(1 0 0 1 2636.69 322)">Heavy</text>
  <text style="stroke:none;fill:black;font-family:-apple-system,&quot;SF Pro Display&quot;,&quot;SF Pro Text&quot;,Helvetica,sans-serif;text-anchor:middle;" transform="matrix(1 0 0 1 2933.4 322)">Black</text>
  <line id="" style="fill:none;stroke:black;opacity:1;stroke-width:0.5;" x1="263" x2="3036" y1="1903" y2="1903"/>
  <g id="" transform="matrix(1 0 0 1 263 1933)">
   <path d="M 9.24805 0.830078 C 13.5547 0.830078 17.1387 -2.74414 17.1387 -7.05078 C 17.1387 -11.3574 13.5449 -14.9316 9.23828 -14.9316 C 4.94141 -14.9316 1.36719 -11.3574 1.36719 -7.05078 C 1.36719 -2.74414 4.95117 0.830078 9.24805 0.830078 Z M 9.24805 -0.654297 C 5.70312 -0.654297 2.87109 -3.49609 2.87109 -7.05078 C 2.87109 -10.6055 5.69336 -13.4473 9.23828 -13.4473 C 12.793 -13.4473 15.6348 -10.6055 15.6445 -7.05078 C 15.6543 -3.49609 12.8027 -0.654297 9.24805 -0.654297 Z M 9.22852 -3.42773 C 9.69727 -3.42773 9.9707 -3.74023 9.9707 -4.25781 L 9.9707 -6.31836 L 12.1973 -6.31836 C 12.6953 -6.31836 13.0371 -6.57227 13.0371 -7.04102 C 13.0371 -7.51953 12.7148 -7.7832 12.1973 -7.7832 L 9.9707 -7.7832 L 9.9707 -10.0098 C 9.9707 -10.5273 9.69727 -10.8496 9.22852 -10.8496 C 8.75977 -10.8496 8.50586 -10.5078 8.50586 -10.0098 L 8.50586 -7.7832 L 6.29883 -7.7832 C 5.78125 -7.7832 5.44922 -7.51953 5.44922 -7.04102 C 5.44922 -6.57227 5.80078 -6.31836 6.29883 -6.31836 L 8.50586 -6.31836 L 8.50586 -4.25781 C 8.50586 -3.75977 8.75977 -3.42773 9.22852 -3.42773 Z"/>
  </g>
  <g id="" transform="matrix(1 0 0 1 281.506 1933)">
   <path d="M 11.709 2.91016 C 17.1582 2.91016 21.6699 -1.60156 21.6699 -7.05078 C 21.6699 -12.4902 17.1484 -17.0117 11.6992 -17.0117 C 6.25977 -17.0117 1.74805 -12.4902 1.74805 -7.05078 C 1.74805 -1.60156 6.26953 2.91016 11.709 2.91016 Z M 11.709 1.25 C 7.09961 1.25 3.41797 -2.44141 3.41797 -7.05078 C 3.41797 -11.6504 7.08984 -15.3516 11.6992 -15.3516 C 16.3086 -15.3516 20 -11.6504 20.0098 -7.05078 C 20.0195 -2.44141 16.3184 1.25 11.709 1.25 Z M 11.6895 -2.41211 C 12.207 -2.41211 12.5195 -2.77344 12.5195 -3.33984 L 12.5195 -6.23047 L 15.5762 -6.23047 C 16.123 -6.23047 16.5039 -6.51367 16.5039 -7.03125 C 16.5039 -7.55859 16.1426 -7.86133 15.5762 -7.86133 L 12.5195 -7.86133 L 12.5195 -10.9277 C 12.5195 -11.5039 12.207 -11.8555 11.6895 -11.8555 C 11.1719 -11.8555 10.8789 -11.4844 10.8789 -10.9277 L 10.8789 -7.86133 L 7.83203 -7.86133 C 7.26562 -7.86133 6.89453 -7.55859 6.89453 -7.03125 C 6.89453 -6.51367 7.28516 -6.23047 7.83203 -6.23047 L 10.8789 -6.23047 L 10.8789 -3.33984 C 10.8789 -2.79297 11.1719 -2.41211 11.6895 -2.41211 Z"/>
  </g>
  <g id="" transform="matrix(1 0 0 1 304.924 1933)">
   <path d="M 14.9707 5.67383 C 21.9336 5.67383 27.6953 -0.078125 27.6953 -7.04102 C 27.6953 -14.0039 21.9238 -19.7559 14.9609 -19.7559 C 8.00781 -19.7559 2.25586 -14.0039 2.25586 -7.04102 C 2.25586 -0.078125 8.01758 5.67383 14.9707 5.67383 Z M 14.9707 3.85742 C 8.93555 3.85742 4.08203 -1.00586 4.08203 -7.04102 C 4.08203 -13.0762 8.92578 -17.9395 14.9609 -17.9395 C 21.0059 -17.9395 25.8594 -13.0762 25.8691 -7.04102 C 25.8789 -1.00586 21.0156 3.85742 14.9707 3.85742 Z M 14.9512 -1.06445 C 15.5176 -1.06445 15.8691 -1.45508 15.8691 -2.06055 L 15.8691 -6.13281 L 20.1074 -6.13281 C 20.6934 -6.13281 21.1133 -6.46484 21.1133 -7.02148 C 21.1133 -7.59766 20.7227 -7.93945 20.1074 -7.93945 L 15.8691 -7.93945 L 15.8691 -12.1875 C 15.8691 -12.8027 15.5176 -13.1934 14.9512 -13.1934 C 14.3848 -13.1934 14.0625 -12.7832 14.0625 -12.1875 L 14.0625 -7.93945 L 9.83398 -7.93945 C 9.21875 -7.93945 8.80859 -7.59766 8.80859 -7.02148 C 8.80859 -6.46484 9.23828 -6.13281 9.83398 -6.13281 L 14.0625 -6.13281 L 14.0625 -2.06055 C 14.0625 -1.47461 14.3848 -1.06445 14.9512 -1.06445 Z"/>
  </g>
  <text style="stroke:none;fill:black;font-family:-apple-system,&quot;SF Pro Display&quot;,&quot;SF Pro Text&quot;,Helvetica,sans-serif;font-weight:bold;" transform="matrix(1 0 0 1 263 1953)">Design Variations</text>
  <text style="stroke:none;fill:black;font-family:-apple-system,&quot;SF Pro Display&quot;,&quot;SF Pro Text&quot;,Helvetica,sans-serif;" transform="matrix(1 0 0 1 263 1971)">Symbols are supported in up to nine weights and three scales.</text>
  <text style="stroke:none;fill:black;font-family:-apple-system,&quot;SF Pro Display&quot;,&quot;SF Pro Text&quot;,Helvetica,sans-serif;" transform="matrix(1 0 0 1 263 1989)">For optimal layout with text and other symbols, vertically align</text>
  <text style="stroke:none;fill:black;font-family:-apple-system,&quot;SF Pro Display&quot;,&quot;SF Pro Text&quot;,Helvetica,sans-serif;" transform="matrix(1 0 0 1 263 2007)">symbols with the adjacent text.</text>
  <rect height="14" id="" style="fill:#00AEEF;stroke:none;opacity:0.4;" width="3" x="776" y="1919"/>
  <g id="" transform="matrix(1 0 0 1 779 1933)">
   <path d="M 10.5273 0 L 12.373 0 L 7.17773 -14.0918 L 5.43945 -14.0918 L 0.244141 0 L 2.08984 0 L 3.50586 -4.0332 L 9.11133 -4.0332 Z M 6.2793 -11.9531 L 6.33789 -11.9531 L 8.59375 -5.52734 L 4.02344 -5.52734 Z"/>
  </g>
  <rect height="14" id="" style="fill:#00AEEF;stroke:none;opacity:0.4;" width="3" x="791.617" y="1919"/>
  <text style="stroke:none;fill:black;font-family:-apple-system,&quot;SF Pro Display&quot;,&quot;SF Pro Text&quot;,Helvetica,sans-serif;font-weight:bold;" transform="matrix(1 0 0 1 776 1953)">Margins</text>
  <text style="stroke:none;fill:black;font-family:-apple-system,&quot;SF Pro Display&quot;,&quot;SF Pro Text&quot;,Helvetica,sans-serif;" transform="matrix(1 0 0 1 776 1971)">Leading and trailing margins on the left and right side of each symbol</text>
  <text style="stroke:none;fill:black;font-family:-apple-system,&quot;SF Pro Display&quot;,&quot;SF Pro Text&quot;,Helvetica,sans-serif;" transform="matrix(1 0 0 1 776 1989)">can be adjusted by modifying the width of the blue rectangles.</text>
  <text style="stroke:none;fill:black;font-family:-apple-system,&quot;SF Pro Display&quot;,&quot;SF Pro Text&quot;,Helvetica,sans-serif;" transform="matrix(1 0 0 1 776 2007)">Modifications are automatically applied proportionally to all</text>
  <text style="stroke:none;fill:black;font-family:-apple-system,&quot;SF Pro Display&quot;,&quot;SF Pro Text&quot;,Helvetica,sans-serif;" transform="matrix(1 0 0 1 776 2025)">scales and weights.</text>
  <g id="" transform="matrix(1 0 0 1 1289 1933)">
   <path d="M 2.83203 3.11523 L 4.375 4.6582 C 5.22461 5.48828 6.19141 5.41992 7.06055 4.46289 L 17.2754 -6.66016 C 17.7051 -6.36719 18.0957 -6.37695 18.5645 -6.47461 L 19.6094 -6.68945 L 20.3027 -5.99609 L 20.2539 -5.47852 C 20.1855 -4.95117 20.3516 -4.53125 20.8496 -4.0332 L 21.6602 -3.22266 C 22.168 -2.71484 22.8223 -2.68555 23.3008 -3.16406 L 26.5527 -6.41602 C 27.0312 -6.89453 27.0117 -7.54883 26.5039 -8.05664 L 25.6836 -8.87695 C 25.1855 -9.375 24.7754 -9.55078 24.2383 -9.47266 L 23.7109 -9.41406 L 23.0566 -10.0781 L 23.3398 -11.2207 C 23.4863 -11.7871 23.3398 -12.2559 22.7148 -12.8613 L 20.3027 -15.2539 C 16.7578 -18.7793 12.2266 -18.6719 9.11133 -15.5371 C 8.69141 -15.1074 8.64258 -14.5215 8.91602 -14.0918 C 9.15039 -13.7207 9.62891 -13.4961 10.2734 -13.6621 C 11.7871 -14.043 13.3008 -13.9258 14.7852 -12.9199 L 14.1602 -11.3379 C 13.9258 -10.752 13.9453 -10.2734 14.1797 -9.83398 L 3.01758 0.439453 C 2.08008 1.30859 1.97266 2.25586 2.83203 3.11523 Z M 10.6738 -15.1465 C 13.3398 -17.1387 16.6504 -16.8262 19.0527 -14.4141 L 21.6797 -11.8066 C 21.9141 -11.5723 21.9434 -11.3867 21.8848 -11.0938 L 21.5039 -9.53125 L 23.0762 -7.95898 L 24.043 -8.04688 C 24.3262 -8.07617 24.4141 -8.05664 24.6387 -7.83203 L 25.2637 -7.20703 L 22.5098 -4.46289 L 21.8848 -5.07812 C 21.6602 -5.30273 21.6406 -5.40039 21.6699 -5.68359 L 21.7578 -6.64062 L 20.1953 -8.20312 L 18.5742 -7.89062 C 18.291 -7.83203 18.1445 -7.83203 17.9102 -8.07617 L 15.7324 -10.2539 C 15.5078 -10.4883 15.4785 -10.625 15.6055 -10.9473 L 16.5527 -13.2227 C 14.9512 -14.7559 12.8418 -15.6055 10.8008 -14.9512 C 10.7129 -14.9219 10.6445 -14.9414 10.6152 -14.9805 C 10.5859 -15.0293 10.5859 -15.0781 10.6738 -15.1465 Z M 4.10156 2.41211 C 3.61328 1.91406 3.78906 1.61133 4.12109 1.30859 L 15.0781 -8.80859 L 16.3086 -7.57812 L 6.15234 3.34961 C 5.84961 3.68164 5.46875 3.7793 5.06836 3.37891 Z"/>
  </g>
  <text style="stroke:none;fill:black;font-family:-apple-system,&quot;SF Pro Display&quot;,&quot;SF Pro Text&quot;,Helvetica,sans-serif;font-weight:bold;" transform="matrix(1 0 0 1 1289 1953)">Exporting</text>
  <text style="stroke:none;fill:black;font-family:-apple-system,&quot;SF Pro Display&quot;,&quot;SF Pro Text&quot;,Helvetica,sans-serif;" transform="matrix(1 0 0 1 1289 1971)">Symbols should be outlined when exporting to ensure the</text>
  <text style="stroke:none;fill:black;font-family:-apple-system,&quot;SF Pro Display&quot;,&quot;SF Pro Text&quot;,Helvetica,sans-serif;" transform="matrix(1 0 0 1 1289 1989)">design is preserved when submitting to Xcode.</text>
  <text id="template-version" style="stroke:none;fill:black;font-family:-apple-system,&quot;SF Pro Display&quot;,&quot;SF Pro Text&quot;,Helvetica,sans-serif;text-anchor:end;" transform="matrix(1 0 0 1 3036 1933)">Template v.1.0</text>
  <text style="stroke:none;fill:black;font-family:-apple-system,&quot;SF Pro Display&quot;,&quot;SF Pro Text&quot;,Helvetica,sans-serif;text-anchor:end;" transform="matrix(1 0 0 1 3036 1951)">Generated from arrow.right.circle.fill</text>
  <text style="stroke:none;fill:black;font-family:-apple-system,&quot;SF Pro Display&quot;,&quot;SF Pro Text&quot;,Helvetica,sans-serif;text-anchor:end;" transform="matrix(1 0 0 1 3036 1969)">Typeset at 100 points</text>
  <text style="stroke:none;fill:black;font-family:-apple-system,&quot;SF Pro Display&quot;,&quot;SF Pro Text&quot;,Helvetica,sans-serif;" transform="matrix(1 0 0 1 263 726)">Small</text>
  <text style="stroke:none;fill:black;font-family:-apple-system,&quot;SF Pro Display&quot;,&quot;SF Pro Text&quot;,Helvetica,sans-serif;" transform="matrix(1 0 0 1 263 1156)">Medium</text>
  <text style="stroke:none;fill:black;font-family:-apple-system,&quot;SF Pro Display&quot;,&quot;SF Pro Text&quot;,Helvetica,sans-serif;" transform="matrix(1 0 0 1 263 1586)">Large</text>
 </g>
 <g id="Guides">
  <g id="H-reference" style="fill:#27AAE1;stroke:none;" transform="matrix(1 0 0 1 339 696)">
   <path d="M 54.9316 0 L 57.666 0 L 30.5664 -70.459 L 28.0762 -70.459 L 0.976562 0 L 3.66211 0 L 12.9395 -24.4629 L 45.7031 -24.4629 Z M 29.1992 -67.0898 L 29.4434 -67.0898 L 44.8242 -26.709 L 13.8184 -26.709 Z"/>
  </g>
  <line id="Baseline-S" style="fill:none;stroke:#27AAE1;opacity:1;stroke-width:0.577;" x1="263" x2="3036" y1="696" y2="696"/>
  <line id="Capline-S" style="fill:none;stroke:#27AAE1;opacity:1;stroke-width:0.577;" x1="263" x2="3036" y1="625.541" y2="625.541"/>
  <g id="H-reference" style="fill:#27AAE1;stroke:none;" transform="matrix(1 0 0 1 339 1126)">
   <path d="M 54.9316 0 L 57.666 0 L 30.5664 -70.459 L 28.0762 -70.459 L 0.976562 0 L 3.66211 0 L 12.9395 -24.4629 L 45.7031 -24.4629 Z M 29.1992 -67.0898 L 29.4434 -67.0898 L 44.8242 -26.709 L 13.8184 -26.709 Z"/>
  </g>
  <line id="Baseline-M" style="fill:none;stroke:#27AAE1;opacity:1;stroke-width:0.577;" x1="263" x2="3036" y1="1126" y2="1126"/>
  <line id="Capline-M" style="fill:none;stroke:#27AAE1;opacity:1;stroke-width:0.577;" x1="263" x2="3036" y1="1055.54" y2="1055.54"/>
  <g id="H-reference" style="fill:#27AAE1;stroke:none;" transform="matrix(1 0 0 1 339 1556)">
   <path d="M 54.9316 0 L 57.666 0 L 30.5664 -70.459 L 28.0762 -70.459 L 0.976562 0 L 3.66211 0 L 12.9395 -24.4629 L 45.7031 -24.4629 Z M 29.1992 -67.0898 L 29.4434 -67.0898 L 44.8242 -26.709 L 13.8184 -26.709 Z"/>
  </g>
  <line id="Baseline-L" style="fill:none;stroke:#27AAE1;opacity:1;stroke-width:0.577;" x1="263" x2="3036" y1="1556" y2="1556"/>
  <line id="Capline-L" style="fill:none;stroke:#27AAE1;opacity:1;stroke-width:0.577;" x1="263" x2="3036" y1="1485.54" y2="1485.54"/>
  <rect height="119.336" id="left-margin" style="fill:#00AEEF;stroke:none;opacity:0.4;" width="8.74023" x="1391.3" y="1030.79"/>
  <rect height="119.336" id="right-margin" style="fill:#00AEEF;stroke:none;opacity:0.4;" width="8.74023" x="1499.65" y="1030.79"/>
 </g>
 <g id="Symbols">
  <g id="Black-L" transform="matrix(1 0 0 1 2854.05 1556)">
   <path d="M 79.3457 32.8613 C 116.748 32.8613 147.412 2.19727 147.412 -35.2051 C 147.412 -72.6074 116.748 -103.271 79.2969 -103.271 C 41.8945 -103.271 11.2793 -72.6074 11.2793 -35.2051 C 11.2793 2.19727 41.9434 32.8613 79.3457 32.8613 Z M 115.039 -35.1562 C 115.039 -32.0801 113.916 -29.541 111.719 -27.5391 L 88.623 -6.00586 C 86.6699 -4.24805 85.1074 -3.51562 82.6172 -3.51562 C 78.2715 -3.51562 75.1465 -6.73828 75.1465 -11.3281 C 75.1465 -13.5742 76.1719 -15.8203 77.7832 -17.0898 L 84.7656 -22.998 L 90.6738 -26.9043 L 77.5391 -25.9277 L 52.2949 -25.9277 C 47.3145 -25.9277 43.75 -30.0293 43.75 -35.1562 C 43.75 -40.332 47.3145 -44.4336 52.2949 -44.4336 L 77.5391 -44.4336 L 90.6738 -43.5059 L 84.5215 -47.4121 L 77.7832 -53.2227 C 76.2207 -54.5898 75.1465 -56.8359 75.1465 -59.0332 C 75.1465 -63.623 78.2715 -66.7969 82.6172 -66.7969 C 85.1074 -66.7969 86.6699 -66.1133 88.623 -64.3555 L 111.719 -42.8223 C 113.916 -40.7715 115.039 -38.2324 115.039 -35.1562 Z"/>
  </g>
  <g id="Heavy-L" transform="matrix(1 0 0 1 2558.39 1556)">
   <path d="M 78.2715 31.7871 C 115.088 31.7871 145.312 1.61133 145.312 -35.2051 C 145.312 -72.0215 115.039 -102.197 78.2715 -102.197 C 41.4551 -102.197 11.2793 -72.0215 11.2793 -35.2051 C 11.2793 1.61133 41.5039 31.7871 78.2715 31.7871 Z M 114.111 -35.2051 C 114.111 -32.5195 113.086 -30.3223 111.182 -28.5156 L 87.7441 -6.29883 C 86.084 -4.78516 84.6191 -4.10156 82.4219 -4.10156 C 78.4668 -4.10156 75.6348 -6.98242 75.6348 -11.084 C 75.6348 -13.1348 76.5625 -15.1367 77.9785 -16.3086 L 85.6934 -23.1445 L 92.2363 -27.8809 L 78.9551 -27.0508 L 50.1953 -27.0508 C 45.7031 -27.0508 42.5293 -30.6152 42.5293 -35.2051 C 42.5781 -39.7949 45.7031 -43.3594 50.1953 -43.3594 L 78.9551 -43.3594 L 92.2363 -42.5293 L 85.498 -47.3145 L 77.9785 -54.1016 C 76.6113 -55.3223 75.6348 -57.3242 75.6348 -59.3262 C 75.6348 -63.4277 78.4668 -66.2598 82.4219 -66.2598 C 84.6191 -66.2598 86.084 -65.6738 87.7441 -64.1113 L 111.182 -41.8945 C 113.135 -40.0391 114.111 -37.8418 114.111 -35.2051 Z"/>
  </g>
  <g id="Bold-L" transform="matrix(1 0 0 1 2262.88 1556)">
   <path d="M 77.0996 30.6152 C 113.232 30.6152 142.92 0.878906 142.92 -35.2051 C 142.92 -71.3379 113.184 -101.025 77.0508 -101.025 C 40.9668 -101.025 11.2793 -71.3379 11.2793 -35.2051 C 11.2793 0.878906 41.0156 30.6152 77.0996 30.6152 Z M 113.037 -35.2539 C 113.037 -33.0078 112.207 -31.1523 110.596 -29.5898 L 86.7676 -6.5918 C 85.3516 -5.32227 84.0332 -4.73633 82.1777 -4.73633 C 78.7109 -4.73633 76.1719 -7.27539 76.1719 -10.8398 C 76.1719 -12.6465 77.002 -14.3555 78.2227 -15.3809 L 86.7188 -23.291 L 93.9941 -29.0039 L 80.5176 -28.2715 L 47.8027 -28.2715 C 43.9453 -28.2715 41.2109 -31.2988 41.2109 -35.2051 C 41.2598 -39.1602 43.9453 -42.1875 47.8027 -42.1875 L 80.5176 -42.1875 L 93.9453 -41.4551 L 86.6211 -47.168 L 78.2227 -55.0781 C 77.0508 -56.1523 76.1719 -57.8613 76.1719 -59.6191 C 76.1719 -63.1836 78.7109 -65.7227 82.1777 -65.7227 C 84.0332 -65.7227 85.3516 -65.1367 86.7676 -63.8672 L 110.596 -40.8203 C 112.256 -39.209 113.037 -37.4023 113.037 -35.2539 Z"/>
  </g>
  <g id="Semibold-L" transform="matrix(1 0 0 1 1966.97 1556)">
   <path d="M 76.2695 29.7852 C 111.914 29.7852 141.309 0.439453 141.309 -35.2051 C 141.309 -70.8496 111.865 -100.244 76.2695 -100.244 C 40.625 -100.244 11.2793 -70.8496 11.2793 -35.2051 C 11.2793 0.439453 40.6738 29.7852 76.2695 29.7852 Z M 112.354 -35.2539 C 112.354 -33.3496 111.621 -31.7383 110.156 -30.3223 L 86.084 -6.83594 C 84.9121 -5.76172 83.6426 -5.17578 81.9824 -5.17578 C 78.8574 -5.17578 76.5625 -7.51953 76.5625 -10.6934 C 76.5625 -12.3047 77.2949 -13.7695 78.3691 -14.7461 L 87.4512 -23.3887 L 95.166 -29.7852 L 81.5918 -29.1504 L 46.1914 -29.1504 C 42.7246 -29.1504 40.2832 -31.7871 40.332 -35.2539 C 40.332 -38.7207 42.7246 -41.3574 46.1914 -41.3574 L 81.5918 -41.3574 L 95.166 -40.6738 L 87.4023 -47.0703 L 78.3691 -55.7617 C 77.3438 -56.7383 76.5625 -58.2031 76.5625 -59.8145 C 76.5625 -62.9883 78.8574 -65.2832 81.9824 -65.2832 C 83.6426 -65.2832 84.9121 -64.7949 86.084 -63.6719 L 110.156 -40.1367 C 111.67 -38.623 112.354 -37.1094 112.354 -35.2539 Z"/>
  </g>
  <g id="Medium-L" transform="matrix(1 0 0 1 1670.87 1556)">
   <path d="M 75.6836 29.1992 C 110.938 29.1992 140.088 0.0488281 140.088 -35.2051 C 140.088 -70.459 110.889 -99.6094 75.6348 -99.6094 C 40.3809 -99.6094 11.2793 -70.459 11.2793 -35.2051 C 11.2793 0.0488281 40.3809 29.1992 75.6836 29.1992 Z M 111.816 -35.2539 C 111.816 -33.5938 111.133 -32.2266 109.863 -30.9082 L 85.5957 -7.03125 C 84.5215 -6.05469 83.3984 -5.51758 81.8848 -5.51758 C 79.0039 -5.51758 76.8555 -7.66602 76.8555 -10.5469 C 76.8555 -12.0605 77.4902 -13.3789 78.4668 -14.2578 L 87.9883 -23.4863 L 96.0938 -30.3711 L 82.4219 -29.7852 L 44.9219 -29.7852 C 41.748 -29.7852 39.5996 -32.1289 39.6484 -35.2539 C 39.6484 -38.4277 41.7969 -40.7227 44.9219 -40.7227 L 82.4219 -40.7227 L 96.0938 -40.1367 L 87.9395 -47.0215 L 78.4668 -56.2988 C 77.5391 -57.1777 76.8555 -58.4961 76.8555 -60.0098 C 76.8555 -62.8906 79.0039 -64.9902 81.8848 -64.9902 C 83.3984 -64.9902 84.5215 -64.5508 85.5957 -63.5254 L 109.863 -39.5996 C 111.23 -38.2324 111.816 -36.8652 111.816 -35.2539 Z"/>
  </g>
  <g id="Regular-L" transform="matrix(1 0 0 1 1374.97 1556)">
   <path d="M 74.8535 28.3691 C 109.668 28.3691 138.477 -0.390625 138.477 -35.2051 C 138.477 -70.0195 109.619 -98.7793 74.8047 -98.7793 C 40.0391 -98.7793 11.2793 -70.0195 11.2793 -35.2051 C 11.2793 -0.390625 40.0879 28.3691 74.8535 28.3691 Z M 111.084 -35.3027 C 111.084 -33.9355 110.547 -32.8125 109.424 -31.6406 L 84.9121 -7.22656 C 84.082 -6.44531 83.0078 -5.9082 81.6895 -5.9082 C 79.1504 -5.9082 77.1973 -7.86133 77.1973 -10.3516 C 77.1973 -11.7188 77.7832 -12.8418 78.6621 -13.623 L 88.7207 -23.6328 L 97.3145 -31.1523 L 83.4961 -30.6641 L 43.3105 -30.6641 C 40.5762 -30.6641 38.6719 -32.6172 38.7207 -35.2539 C 38.7695 -37.9883 40.5762 -39.9414 43.3105 -39.9414 L 83.4961 -39.9414 L 97.2656 -39.4043 L 88.7207 -46.9238 L 78.6621 -56.9336 C 77.832 -57.7637 77.1973 -58.8379 77.1973 -60.2051 C 77.1973 -62.7441 79.1504 -64.5996 81.6895 -64.5996 C 83.0078 -64.5996 84.082 -64.209 84.9121 -63.3301 L 109.424 -38.8672 C 110.645 -37.6465 111.084 -36.5723 111.084 -35.3027 Z"/>
  </g>
  <g id="Light-L" transform="matrix(1 0 0 1 1079.18 1556)">
   <path d="M 73.9258 27.4902 C 108.301 27.4902 136.621 -0.830078 136.621 -35.1562 C 136.621 -69.5312 108.252 -97.8516 73.9258 -97.8516 C 39.5508 -97.8516 11.2793 -69.5312 11.2793 -35.1562 C 11.2793 -0.830078 39.5996 27.4902 73.9258 27.4902 Z M 109.375 -35.2539 C 109.375 -34.2285 108.936 -33.3496 108.154 -32.5195 L 83.1055 -7.56836 C 82.4219 -6.93359 81.6406 -6.54297 80.6152 -6.54297 C 78.6621 -6.54297 77.2461 -8.00781 77.2461 -9.91211 C 77.2461 -10.9863 77.6855 -11.7676 78.3691 -12.4512 L 90.0879 -24.0723 L 98.6816 -32.0801 L 86.7188 -31.6895 L 42.1387 -31.6895 C 39.9902 -31.6895 38.5254 -33.2031 38.5742 -35.2051 C 38.623 -37.3535 40.0391 -38.8184 42.1387 -38.8184 L 86.7188 -38.8184 L 98.6816 -38.3789 L 90.0879 -46.3867 L 78.3691 -58.0566 C 77.7344 -58.7402 77.2461 -59.5215 77.2461 -60.5957 C 77.2461 -62.5 78.6621 -63.916 80.6152 -63.916 C 81.6406 -63.916 82.4219 -63.623 83.1055 -62.9395 L 108.154 -37.9395 C 109.033 -37.0605 109.375 -36.1816 109.375 -35.2539 Z"/>
  </g>
  <g id="Thin-L" transform="matrix(1 0 0 1 783.693 1556)">
   <path d="M 72.7051 26.3184 C 106.494 26.3184 134.18 -1.36719 134.18 -35.1074 C 134.18 -68.8965 106.494 -96.582 72.7051 -96.582 C 38.9648 -96.582 11.2793 -68.8965 11.2793 -35.1074 C 11.2793 -1.36719 38.9648 26.3184 72.7051 26.3184 Z M 107.08 -35.2051 C 107.08 -34.6191 106.836 -34.0332 106.445 -33.6914 L 80.7617 -8.05664 C 80.2734 -7.56836 79.8828 -7.37305 79.1992 -7.37305 C 78.0273 -7.37305 77.2949 -8.20312 77.2949 -9.27734 C 77.2949 -9.96094 77.5879 -10.4004 78.0273 -10.8398 L 91.9434 -24.707 L 100.488 -33.252 L 91.0645 -33.0566 L 40.5762 -33.0566 C 39.209 -33.0566 38.3301 -33.9355 38.4277 -35.1074 C 38.4766 -36.5234 39.3066 -37.3535 40.5762 -37.3535 L 91.0645 -37.3535 L 100.537 -37.0605 L 91.9434 -45.6543 L 78.0273 -59.5703 C 77.5879 -60.0098 77.2949 -60.4492 77.2949 -61.1328 C 77.2949 -62.207 78.0273 -63.0371 79.1992 -63.0371 C 79.8828 -63.0371 80.2734 -62.8418 80.7617 -62.3535 L 106.445 -36.7188 C 106.885 -36.2793 107.08 -35.6445 107.08 -35.2051 Z"/>
  </g>
  <g id="Ultralight-L" transform="matrix(1 0 0 1 487.616 1556)">
   <path d="M 72.1191 25.7324 C 105.566 25.7324 132.91 -1.61133 132.91 -35.1074 C 132.91 -68.5547 105.566 -95.8984 72.1191 -95.8984 C 38.623 -95.8984 11.2793 -68.5547 11.2793 -35.1074 C 11.2793 -1.61133 38.623 25.7324 72.1191 25.7324 Z M 105.957 -35.1562 C 105.957 -34.8145 105.713 -34.4238 105.615 -34.2773 L 79.541 -8.30078 C 79.1992 -7.91016 78.9551 -7.8125 78.4668 -7.8125 C 77.6855 -7.8125 77.2949 -8.30078 77.2949 -8.98438 C 77.2949 -9.47266 77.5391 -9.66797 77.8809 -10.0098 L 92.8711 -25.0488 L 101.416 -33.8867 L 93.2617 -33.7402 L 39.7461 -33.7402 C 38.8184 -33.7402 38.2324 -34.3262 38.3301 -35.1074 C 38.4277 -36.1328 38.916 -36.5723 39.7461 -36.5723 L 93.2617 -36.5723 L 101.465 -36.377 L 92.8711 -45.3125 L 77.8809 -60.3516 C 77.4902 -60.6934 77.2949 -60.8887 77.2949 -61.377 C 77.2949 -62.0605 77.6855 -62.5488 78.4668 -62.5488 C 78.9551 -62.5488 79.1992 -62.4023 79.541 -62.0605 L 105.615 -36.084 C 105.811 -35.8887 105.957 -35.4004 105.957 -35.1562 Z"/>
  </g>
  <g id="Black-M" transform="matrix(1 0 0 1 2870.97 1126)">
   <path d="M 62.4023 18.457 C 91.9922 18.457 116.113 -5.61523 116.113 -35.2051 C 116.113 -64.7949 91.9922 -88.8672 62.4023 -88.8672 C 32.8125 -88.8672 8.74023 -64.7949 8.74023 -35.2051 C 8.74023 -5.61523 32.8125 18.457 62.4023 18.457 Z M 89.502 -35.1074 C 89.502 -32.373 88.4766 -30.0781 86.6699 -28.418 L 68.8965 -12.3535 C 67.1387 -10.791 65.8691 -10.2539 63.7695 -10.2539 C 60.1074 -10.2539 57.6172 -12.8418 57.6172 -16.748 C 57.6172 -18.6523 58.4961 -20.6055 59.8633 -21.6309 L 65.1855 -25.7812 L 68.8965 -27.8809 L 59.9609 -27.0996 L 42.7734 -27.0996 C 38.4766 -27.0996 35.4004 -30.6641 35.4004 -35.1074 C 35.4004 -39.5996 38.4766 -43.1641 42.7734 -43.1641 L 59.9609 -43.1641 L 68.8965 -42.4316 L 64.8926 -44.5312 L 59.8633 -48.6328 C 58.4961 -49.7559 57.6172 -51.709 57.6172 -53.5156 C 57.6172 -57.4219 60.1074 -60.0098 63.7695 -60.0098 C 65.8691 -60.0098 67.1387 -59.4727 68.8965 -57.9102 L 86.6699 -41.8457 C 88.4766 -40.1855 89.502 -37.8906 89.502 -35.1074 Z"/>
  </g>
  <g id="Heavy-M" transform="matrix(1 0 0 1 2575.19 1126)">
   <path d="M 61.5234 17.5781 C 90.5273 17.5781 114.258 -6.15234 114.258 -35.2051 C 114.258 -64.2578 90.5273 -87.9883 61.4746 -87.9883 C 32.4707 -87.9883 8.74023 -64.2578 8.74023 -35.2051 C 8.74023 -6.15234 32.4707 17.5781 61.5234 17.5781 Z M 88.916 -35.1562 C 88.916 -32.7637 88.0371 -30.7617 86.377 -29.248 L 68.4082 -12.5977 C 66.8945 -11.2305 65.7227 -10.6934 63.7695 -10.6934 C 60.4492 -10.6934 58.1543 -13.1348 58.1543 -16.6504 C 58.1543 -18.3594 58.9355 -20.0684 60.1562 -21.0449 L 65.8203 -25.8301 L 70.2637 -28.7598 L 60.6445 -28.0273 L 40.7715 -28.0273 C 36.9141 -28.0273 34.1309 -31.2012 34.1797 -35.1562 C 34.1797 -39.1602 36.9141 -42.334 40.7715 -42.334 L 60.6445 -42.334 L 70.2148 -41.6016 L 65.625 -44.5312 L 60.1562 -49.2676 C 58.9355 -50.293 58.1543 -52.0508 58.1543 -53.7109 C 58.1543 -57.2266 60.4492 -59.6191 63.7695 -59.6191 C 65.7227 -59.6191 66.8945 -59.1309 68.4082 -57.7637 L 86.377 -41.1133 C 88.0371 -39.5508 88.916 -37.5488 88.916 -35.1562 Z"/>
  </g>
  <g id="Bold-M" transform="matrix(1 0 0 1 2279.5 1126)">
   <path d="M 60.498 16.5039 C 88.8672 16.5039 112.207 -6.78711 112.207 -35.2051 C 112.207 -63.623 88.8672 -86.9629 60.4492 -86.9629 C 32.0312 -86.9629 8.74023 -63.623 8.74023 -35.2051 C 8.74023 -6.78711 32.0801 16.5039 60.498 16.5039 Z M 88.2812 -35.2051 C 88.2812 -33.2031 87.5488 -31.543 86.084 -30.1758 L 67.8711 -12.8418 C 66.6016 -11.7188 65.4785 -11.1816 63.8184 -11.1816 C 60.8398 -11.1816 58.6914 -13.3789 58.6914 -16.5039 C 58.6914 -18.0176 59.4238 -19.5312 60.498 -20.4102 L 66.5527 -25.8789 L 71.7773 -29.7363 L 61.4258 -29.1016 L 38.5254 -29.1016 C 35.1074 -29.1016 32.7637 -31.7871 32.7637 -35.2051 C 32.7637 -38.6719 35.1074 -41.3574 38.5254 -41.3574 L 61.4258 -41.3574 L 71.7285 -40.7227 L 66.4551 -44.5801 L 60.498 -50 C 59.4238 -50.9277 58.6914 -52.4414 58.6914 -53.9551 C 58.6914 -57.0312 60.8398 -59.2285 63.8184 -59.2285 C 65.4785 -59.2285 66.6016 -58.7402 67.8711 -57.5684 L 86.084 -40.2344 C 87.5488 -38.8184 88.2812 -37.207 88.2812 -35.2051 Z"/>
  </g>
  <g id="Semibold-M" transform="matrix(1 0 0 1 1983.5 1126)">
   <path d="M 59.7656 15.8203 C 87.7441 15.8203 110.791 -7.22656 110.791 -35.2051 C 110.791 -63.1836 87.6953 -86.2793 59.7656 -86.2793 C 31.7871 -86.2793 8.74023 -63.1836 8.74023 -35.2051 C 8.74023 -7.22656 31.7871 15.8203 59.7656 15.8203 Z M 87.8418 -35.2539 C 87.8418 -33.4961 87.207 -32.0801 85.8887 -30.8105 L 67.4805 -13.0371 C 66.4062 -12.0605 65.332 -11.5723 63.8672 -11.5723 C 61.1328 -11.5723 59.1309 -13.5742 59.1309 -16.4062 C 59.1309 -17.8223 59.7656 -19.1406 60.6934 -19.9707 L 67.0898 -25.8789 L 72.8027 -30.4199 L 61.9141 -29.834 L 36.9629 -29.834 C 33.8867 -29.834 31.7871 -32.1777 31.7871 -35.2539 C 31.7871 -38.3301 33.8867 -40.6738 36.9629 -40.6738 L 61.9141 -40.6738 L 72.7539 -40.0879 L 66.9922 -44.5801 L 60.6934 -50.5371 C 59.7656 -51.3672 59.1309 -52.6855 59.1309 -54.1016 C 59.1309 -56.8848 61.1328 -58.8867 63.8672 -58.8867 C 65.332 -58.8867 66.4062 -58.4961 67.4805 -57.4707 L 85.8887 -39.5996 C 87.207 -38.3301 87.8418 -36.9141 87.8418 -35.2539 Z"/>
  </g>
  <g id="Medium-M" transform="matrix(1 0 0 1 1687.3 1126)">
   <path d="M 59.2285 15.2832 C 86.9141 15.2832 109.766 -7.56836 109.766 -35.2051 C 109.766 -62.8906 86.8652 -85.7422 59.1797 -85.7422 C 31.543 -85.7422 8.74023 -62.8906 8.74023 -35.2051 C 8.74023 -7.56836 31.5918 15.2832 59.2285 15.2832 Z M 87.5 -35.2539 C 87.5 -33.7402 86.9141 -32.5195 85.7422 -31.3477 L 67.1875 -13.1348 C 66.2598 -12.3047 65.2344 -11.8164 63.916 -11.8164 C 61.3281 -11.8164 59.4238 -13.7207 59.4238 -16.3086 C 59.4238 -17.6758 60.0098 -18.8477 60.8887 -19.6289 L 67.4805 -25.9277 L 73.584 -30.9082 L 62.3535 -30.3711 L 35.791 -30.3711 C 32.959 -30.3711 31.0547 -32.4707 31.0547 -35.2539 C 31.0547 -38.0859 32.959 -40.1367 35.791 -40.1367 L 62.3535 -40.1367 L 73.584 -39.6484 L 67.4316 -44.5801 L 60.8887 -50.9277 C 60.0586 -51.709 59.4238 -52.8809 59.4238 -54.1992 C 59.4238 -56.7871 61.3281 -58.6914 63.916 -58.6914 C 65.2344 -58.6914 66.2598 -58.252 67.1875 -57.373 L 85.7422 -39.1602 C 86.9629 -37.9395 87.5 -36.7188 87.5 -35.2539 Z"/>
  </g>
  <g id="Regular-M" transform="matrix(1 0 0 1 1391.3 1126)">
   <path d="M 58.5449 14.5508 C 85.791 14.5508 108.35 -8.00781 108.35 -35.2539 C 108.35 -62.4512 85.7422 -85.0586 58.4961 -85.0586 C 31.2988 -85.0586 8.74023 -62.4512 8.74023 -35.2539 C 8.74023 -8.00781 31.3477 14.5508 58.5449 14.5508 Z M 87.0605 -35.3027 C 87.0605 -34.0332 86.5723 -33.0566 85.5469 -31.9824 L 66.8457 -13.3301 C 66.0645 -12.6465 65.0879 -12.1582 63.916 -12.1582 C 61.6211 -12.1582 59.8145 -13.916 59.8145 -16.2109 C 59.8145 -17.4316 60.3516 -18.457 61.084 -19.1895 L 67.9688 -25.9277 L 74.6094 -31.543 L 62.8418 -31.1035 L 34.2285 -31.1035 C 31.7383 -31.1035 30.0781 -32.8613 30.0781 -35.3027 C 30.0781 -37.7441 31.7871 -39.502 34.2285 -39.502 L 62.8418 -39.502 L 74.6094 -39.0137 L 67.9688 -44.5801 L 61.084 -51.416 C 60.4004 -52.0996 59.8145 -53.1738 59.8145 -54.3457 C 59.8145 -56.6406 61.6211 -58.3984 63.916 -58.3984 C 65.0879 -58.3984 66.0645 -58.0078 66.8457 -57.2754 L 85.5469 -38.5742 C 86.6699 -37.4512 87.0605 -36.4746 87.0605 -35.3027 Z"/>
  </g>
  <g id="Light-M" transform="matrix(1 0 0 1 1095.42 1126)">
   <path d="M 57.7148 13.7695 C 84.5215 13.7695 106.689 -8.39844 106.689 -35.2051 C 106.689 -62.0117 84.5215 -84.1797 57.666 -84.1797 C 30.8594 -84.1797 8.74023 -62.0117 8.74023 -35.2051 C 8.74023 -8.39844 30.9082 13.7695 57.7148 13.7695 Z M 85.5469 -35.2539 C 85.5469 -34.3262 85.1562 -33.4961 84.375 -32.7637 L 65.2344 -13.623 C 64.5996 -13.0859 63.8672 -12.7441 62.9395 -12.7441 C 61.1816 -12.7441 59.8633 -14.0625 59.8633 -15.8203 C 59.8633 -16.748 60.2539 -17.5293 60.8398 -18.1152 L 69.1895 -26.3672 L 75.8301 -32.373 L 65.7715 -32.0312 L 33.1543 -32.0312 C 31.25 -32.0312 29.9316 -33.3984 29.9805 -35.2539 C 29.9805 -37.1582 31.25 -38.5254 33.1543 -38.5254 L 65.7715 -38.5254 L 75.8301 -38.1348 L 69.1895 -44.0918 L 60.8398 -52.4414 C 60.3027 -52.9785 59.8633 -53.7598 59.8633 -54.7363 C 59.8633 -56.4453 61.1816 -57.7637 62.9395 -57.7637 C 63.8672 -57.7637 64.5996 -57.4707 65.2344 -56.8848 L 84.375 -37.7441 C 85.2051 -36.9141 85.5469 -36.1328 85.5469 -35.2539 Z"/>
  </g>
  <g id="Thin-M" transform="matrix(1 0 0 1 799.806 1126)">
   <path d="M 56.6406 12.7441 C 82.9102 12.7441 104.492 -8.83789 104.492 -35.1562 C 104.492 -61.4746 82.9102 -83.0566 56.5918 -83.0566 C 30.3223 -83.0566 8.74023 -61.4746 8.74023 -35.1562 C 8.74023 -8.83789 30.3223 12.7441 56.6406 12.7441 Z M 83.4961 -35.2051 C 83.4961 -34.668 83.252 -34.1309 82.8613 -33.7891 L 63.0859 -14.0625 C 62.6953 -13.6719 62.3047 -13.4766 61.6699 -13.4766 C 60.5957 -13.4766 59.9121 -14.2578 59.9121 -15.2832 C 59.9121 -15.8691 60.1562 -16.2598 60.5469 -16.6504 L 70.8496 -26.9531 L 77.4902 -33.4473 L 69.6289 -33.252 L 31.7871 -33.252 C 30.5664 -33.252 29.7852 -34.082 29.834 -35.1562 C 29.8828 -36.4258 30.6152 -37.207 31.7871 -37.207 L 69.6289 -37.207 L 77.4902 -36.9629 L 70.8496 -43.457 L 60.5469 -53.7598 C 60.1562 -54.1504 59.9121 -54.5898 59.9121 -55.1758 C 59.9121 -56.2012 60.5957 -56.9336 61.6699 -56.9336 C 62.3047 -56.9336 62.6953 -56.7871 63.0859 -56.3965 L 82.8613 -36.6699 C 83.3008 -36.2305 83.4961 -35.6445 83.4961 -35.2051 Z"/>
  </g>
  <g id="Ultralight-M" transform="matrix(1 0 0 1 503.656 1126)">
   <path d="M 56.0547 12.207 C 82.0801 12.207 103.369 -9.08203 103.369 -35.1562 C 103.369 -61.1816 82.0801 -82.4707 56.0547 -82.4707 C 30.0293 -82.4707 8.74023 -61.1816 8.74023 -35.1562 C 8.74023 -9.08203 30.0293 12.207 56.0547 12.207 Z M 82.4707 -35.2051 C 82.4707 -34.8633 82.2754 -34.4727 82.0801 -34.3262 L 62.0117 -14.2578 C 61.7188 -13.9648 61.4746 -13.8672 61.0352 -13.8672 C 60.3027 -13.8672 59.9121 -14.3066 59.9121 -14.9902 C 59.9121 -15.3809 60.1074 -15.625 60.4004 -15.9668 L 71.6797 -27.2461 L 78.3203 -33.9844 L 71.582 -33.8867 L 31.0547 -33.8867 C 30.2246 -33.8867 29.6875 -34.4238 29.7363 -35.1562 C 29.7852 -36.0352 30.2734 -36.5234 31.0547 -36.5234 L 71.582 -36.5234 L 78.3691 -36.3281 L 71.6797 -43.1641 L 60.4004 -54.4434 C 60.1074 -54.7363 59.9121 -54.9805 59.9121 -55.4199 C 59.9121 -56.0547 60.3027 -56.543 61.0352 -56.543 C 61.4746 -56.543 61.7188 -56.4453 62.0117 -56.1035 L 82.0801 -36.084 C 82.3242 -35.8398 82.4707 -35.4492 82.4707 -35.2051 Z"/>
  </g>
  <g id="Black-S" transform="matrix(1 0 0 1 2884.57 696)">
   <path d="M 48.8281 6.78711 C 71.9727 6.78711 90.8203 -12.0605 90.8203 -35.2051 C 90.8203 -58.3496 71.9727 -77.1973 48.8281 -77.1973 C 25.6836 -77.1973 6.83594 -58.3496 6.83594 -35.2051 C 6.83594 -12.0605 25.6836 6.78711 48.8281 6.78711 Z M 70.0684 -35.1562 C 70.0684 -33.0078 69.2871 -31.25 67.8711 -29.9316 L 53.9551 -17.334 C 52.5879 -16.1133 51.6113 -15.6738 49.9512 -15.6738 C 47.1191 -15.6738 45.166 -17.7246 45.166 -20.752 C 45.166 -22.2168 45.8496 -23.7305 46.9238 -24.5605 L 51.0742 -27.832 L 54.0527 -29.541 L 46.9727 -28.9062 L 33.3496 -28.9062 C 30.0293 -28.9062 27.6367 -31.6895 27.6367 -35.1562 C 27.6367 -38.623 30.0293 -41.4062 33.3496 -41.4062 L 46.9727 -41.4062 L 54.0527 -40.8203 L 50.8789 -42.5293 L 46.9238 -45.752 C 45.8496 -46.6309 45.166 -48.1445 45.166 -49.5605 C 45.166 -52.5879 47.1191 -54.6387 49.9512 -54.6387 C 51.6113 -54.6387 52.5879 -54.1992 53.9551 -52.9785 L 67.8711 -40.3809 C 69.2871 -39.0625 70.0684 -37.3047 70.0684 -35.1562 Z"/>
  </g>
  <g id="Heavy-S" transform="matrix(1 0 0 1 2588.47 696)">
   <path d="M 48.2422 6.15234 C 70.9961 6.15234 89.5996 -12.4512 89.5996 -35.2051 C 89.5996 -57.959 70.9961 -76.6113 48.1934 -76.6113 C 25.4395 -76.6113 6.83594 -57.959 6.83594 -35.2051 C 6.83594 -12.4512 25.4395 6.15234 48.2422 6.15234 Z M 69.8242 -35.2051 C 69.8242 -33.3008 69.0918 -31.7383 67.7734 -30.4688 L 53.7598 -17.4805 C 52.5391 -16.4062 51.6113 -15.9668 50.0977 -15.9668 C 47.4609 -15.9668 45.5566 -17.9199 45.5566 -20.7031 C 45.5566 -22.0703 46.1914 -23.4375 47.168 -24.2188 L 51.4648 -27.832 L 54.9316 -30.127 L 47.168 -29.541 L 31.9336 -29.541 C 28.8574 -29.541 26.709 -32.0312 26.709 -35.2051 C 26.709 -38.3301 28.8574 -40.8691 31.9336 -40.8691 L 47.168 -40.8691 L 54.9316 -40.2832 L 51.2695 -42.5781 L 47.168 -46.1426 C 46.1914 -46.9727 45.5566 -48.3398 45.5566 -49.6582 C 45.5566 -52.4902 47.4609 -54.3945 50.0977 -54.3945 C 51.6113 -54.3945 52.5391 -54.0039 53.7598 -52.9297 L 67.7734 -39.8926 C 69.1406 -38.623 69.8242 -37.0605 69.8242 -35.2051 Z"/>
  </g>
  <g id="Bold-S" transform="matrix(1 0 0 1 2292.44 696)">
   <path d="M 47.5586 5.46875 C 69.873 5.46875 88.2324 -12.8906 88.2324 -35.2051 C 88.2324 -57.5684 69.873 -75.9277 47.5098 -75.9277 C 25.1953 -75.9277 6.83594 -57.5684 6.83594 -35.2051 C 6.83594 -12.8906 25.1953 5.46875 47.5586 5.46875 Z M 69.5312 -35.2051 C 69.5312 -33.5938 68.8965 -32.2754 67.7246 -31.1035 L 53.5156 -17.627 C 52.5391 -16.6992 51.6113 -16.2598 50.2441 -16.2598 C 47.8027 -16.2598 45.9961 -18.1152 45.9961 -20.6543 C 45.9961 -21.9238 46.582 -23.1445 47.4609 -23.877 L 51.8555 -27.7832 L 55.957 -30.7617 L 47.4121 -30.2246 L 30.3223 -30.2246 C 27.5879 -30.2246 25.6348 -32.4219 25.6348 -35.2051 C 25.6348 -38.0371 27.5879 -40.2344 30.3223 -40.2344 L 47.4121 -40.2344 L 55.957 -39.7461 L 51.7578 -42.6758 L 47.4609 -46.582 C 46.582 -47.3145 45.9961 -48.5352 45.9961 -49.8047 C 45.9961 -52.3438 47.8027 -54.1504 50.2441 -54.1504 C 51.6113 -54.1504 52.5391 -53.7598 53.5156 -52.832 L 67.7246 -39.3066 C 68.9453 -38.1348 69.5312 -36.8164 69.5312 -35.2051 Z"/>
  </g>
  <g id="Semibold-S" transform="matrix(1 0 0 1 1996.2 696)">
   <path d="M 47.0703 4.98047 C 69.0918 4.98047 87.3047 -13.1836 87.3047 -35.2539 C 87.3047 -57.2754 69.0918 -75.4883 47.0215 -75.4883 C 25 -75.4883 6.83594 -57.2754 6.83594 -35.2539 C 6.83594 -13.1836 25.0488 4.98047 47.0703 4.98047 Z M 69.2871 -35.2539 C 69.2871 -33.7891 68.75 -32.6172 67.627 -31.543 L 53.3691 -17.7246 C 52.4902 -16.9434 51.5625 -16.5039 50.3418 -16.5039 C 48.0469 -16.5039 46.2891 -18.2617 46.2891 -20.6055 C 46.2891 -21.8262 46.8262 -22.9492 47.6562 -23.6328 L 52.1484 -27.7832 L 56.6406 -31.2012 L 47.5586 -30.7129 L 29.248 -30.7129 C 26.6602 -30.7129 24.9023 -32.666 24.9023 -35.2539 C 24.9023 -37.8418 26.6602 -39.7949 29.248 -39.7949 L 47.5586 -39.7949 L 56.6406 -39.3066 L 52.0996 -42.7246 L 47.6562 -46.875 C 46.875 -47.6074 46.2891 -48.7305 46.2891 -49.9023 C 46.2891 -52.2461 48.0469 -53.9551 50.3418 -53.9551 C 51.5625 -53.9551 52.4902 -53.6133 53.3691 -52.7832 L 67.627 -38.916 C 68.7988 -37.793 69.2871 -36.6699 69.2871 -35.2539 Z"/>
  </g>
  <g id="Medium-S" transform="matrix(1 0 0 1 1699.83 696)">
   <path d="M 46.7285 4.63867 C 68.5547 4.63867 86.6211 -13.4277 86.6211 -35.2539 C 86.6211 -57.0312 68.5059 -75.1465 46.6797 -75.1465 C 24.8535 -75.1465 6.83594 -57.0312 6.83594 -35.2539 C 6.83594 -13.4277 24.9023 4.63867 46.7285 4.63867 Z M 69.1406 -35.2539 C 69.1406 -33.9844 68.6523 -32.9102 67.627 -31.8848 L 53.2715 -17.8223 C 52.4902 -17.0898 51.5625 -16.6504 50.4395 -16.6504 C 48.2422 -16.6504 46.5332 -18.3594 46.5332 -20.5566 C 46.5332 -21.7285 47.0215 -22.7539 47.7539 -23.4375 L 52.3438 -27.7832 L 57.1777 -31.543 L 47.6562 -31.0547 L 28.418 -31.0547 C 25.9766 -31.0547 24.3164 -32.8613 24.3164 -35.2539 C 24.3652 -37.6465 26.0254 -39.502 28.418 -39.502 L 47.6562 -39.502 L 57.1289 -39.0137 L 52.2949 -42.7246 L 47.7539 -47.1191 C 47.0703 -47.8027 46.5332 -48.8281 46.5332 -49.9512 C 46.5332 -52.1973 48.2422 -53.8574 50.4395 -53.8574 C 51.5625 -53.8574 52.4902 -53.4668 53.2715 -52.7344 L 67.627 -38.623 C 68.7012 -37.5488 69.1406 -36.5234 69.1406 -35.2539 Z"/>
  </g>
  <g id="Regular-S" transform="matrix(1 0 0 1 1403.58 696)">
   <path d="M 46.2402 4.15039 C 67.7734 4.15039 85.6934 -13.7207 85.6934 -35.2539 C 85.6934 -56.7871 67.7246 -74.6582 46.1914 -74.6582 C 24.707 -74.6582 6.83594 -56.7871 6.83594 -35.2539 C 6.83594 -13.7207 24.7559 4.15039 46.2402 4.15039 Z M 68.9453 -35.3027 C 68.9453 -34.1797 68.5059 -33.3008 67.5293 -32.2754 L 53.125 -17.9199 C 52.4414 -17.2852 51.5625 -16.8945 50.5371 -16.8945 C 48.4863 -16.8945 46.8262 -18.457 46.8262 -20.5566 C 46.8262 -21.6309 47.3145 -22.5586 47.9492 -23.1934 L 52.6367 -27.7344 L 57.8613 -31.9824 L 47.8027 -31.543 L 27.3438 -31.543 C 25.0977 -31.543 23.6328 -33.1543 23.6328 -35.3027 C 23.6328 -37.4512 25.0977 -39.0625 27.3438 -39.0625 L 47.8027 -39.0625 L 57.8125 -38.623 L 52.6367 -42.7734 L 47.9492 -47.4121 C 47.3633 -48.0469 46.8262 -48.9746 46.8262 -50.0488 C 46.8262 -52.0996 48.4863 -53.6621 50.5371 -53.6621 C 51.5625 -53.6621 52.4414 -53.3203 53.125 -52.6855 L 67.5293 -38.2324 C 68.5547 -37.207 68.9453 -36.377 68.9453 -35.3027 Z"/>
  </g>
  <g id="Light-S" transform="matrix(1 0 0 1 1107.6 696)">
   <path d="M 45.5078 3.4668 C 66.6992 3.4668 84.2285 -14.0625 84.2285 -35.2051 C 84.2285 -56.3965 66.6504 -73.9258 45.5078 -73.9258 C 24.3164 -73.9258 6.83594 -56.3965 6.83594 -35.2051 C 6.83594 -14.0625 24.3652 3.4668 45.5078 3.4668 Z M 67.5781 -35.2539 C 67.5781 -34.4238 67.2363 -33.6914 66.5527 -33.0078 L 51.709 -18.2129 C 51.1719 -17.7246 50.4883 -17.3828 49.707 -17.3828 C 48.0957 -17.3828 46.875 -18.6035 46.875 -20.166 C 46.875 -21.0449 47.2168 -21.7285 47.7539 -22.2168 L 53.7109 -28.125 L 58.9355 -32.666 L 50.3906 -32.373 L 26.3672 -32.373 C 24.6582 -32.373 23.4863 -33.5938 23.5352 -35.2539 C 23.5352 -36.9629 24.6582 -38.1836 26.3672 -38.1836 L 50.3906 -38.1836 L 58.9355 -37.8418 L 53.7109 -42.3828 L 47.7539 -48.3398 C 47.2656 -48.8281 46.875 -49.5117 46.875 -50.3418 C 46.875 -51.9531 48.0957 -53.125 49.707 -53.125 C 50.4883 -53.125 51.1719 -52.8809 51.709 -52.3438 L 66.5527 -37.5 C 67.2852 -36.7676 67.5781 -36.084 67.5781 -35.2539 Z"/>
  </g>
  <g id="Thin-S" transform="matrix(1 0 0 1 811.867 696)">
   <path d="M 44.5801 2.53906 C 65.2832 2.53906 82.2754 -14.4531 82.2754 -35.2051 C 82.2754 -55.9082 65.2344 -72.9004 44.5312 -72.9004 C 23.8281 -72.9004 6.83594 -55.9082 6.83594 -35.2051 C 6.83594 -14.4531 23.877 2.53906 44.5801 2.53906 Z M 65.7715 -35.2539 C 65.7715 -34.7168 65.5762 -34.2773 65.1855 -33.8867 L 49.8047 -18.5547 C 49.4629 -18.2129 49.0723 -18.0176 48.584 -18.0176 C 47.6074 -18.0176 46.875 -18.75 46.875 -19.6777 C 46.875 -20.2148 47.1191 -20.6055 47.5098 -20.9473 L 55.1758 -28.6133 L 60.3516 -33.6426 L 53.8086 -33.4473 L 25.1465 -33.4473 C 24.0723 -33.4473 23.3398 -34.1797 23.3887 -35.2051 C 23.4375 -36.3281 24.1211 -37.0117 25.1465 -37.0117 L 53.8086 -37.0117 L 60.4004 -36.8164 L 55.1758 -41.7969 L 47.5098 -49.5117 C 47.168 -49.8535 46.875 -50.2441 46.875 -50.7812 C 46.875 -51.709 47.6074 -52.3926 48.584 -52.3926 C 49.0723 -52.3926 49.4629 -52.2461 49.8047 -51.9043 L 65.1855 -36.5723 C 65.625 -36.1328 65.7715 -35.6445 65.7715 -35.2539 Z"/>
  </g>
  <g id="Ultralight-S" transform="matrix(1 0 0 1 515.644 696)">
   <path d="M 44.043 2.05078 C 64.502 2.05078 81.2988 -14.6973 81.2988 -35.1562 C 81.2988 -55.6152 64.502 -72.3633 44.043 -72.3633 C 23.584 -72.3633 6.83594 -55.6152 6.83594 -35.1562 C 6.83594 -14.6973 23.584 2.05078 44.043 2.05078 Z M 64.8438 -35.2051 C 64.8438 -34.8633 64.6973 -34.5703 64.502 -34.375 L 48.877 -18.75 C 48.584 -18.5059 48.3398 -18.3594 47.998 -18.3594 C 47.3145 -18.3594 46.9238 -18.8477 46.9238 -19.4336 C 46.9238 -19.8242 47.0703 -20.0684 47.3633 -20.3125 L 55.9082 -28.9062 L 61.1328 -34.1309 L 55.5664 -33.9844 L 24.5117 -33.9844 C 23.7305 -33.9844 23.2422 -34.5215 23.291 -35.1562 C 23.3398 -35.9863 23.7793 -36.4258 24.5117 -36.4258 L 55.5664 -36.4258 L 61.1328 -36.2793 L 55.9082 -41.5039 L 47.3633 -50.0977 C 47.0703 -50.3906 46.9238 -50.5859 46.9238 -50.9766 C 46.9238 -51.6113 47.3145 -52.0508 47.998 -52.0508 C 48.3398 -52.0508 48.584 -51.9043 48.877 -51.6602 L 64.502 -36.0352 C 64.7461 -35.791 64.8438 -35.4492 64.8438 -35.2051 Z"/>
  </g>
 </g>
</svg>
